<?xml version="1.0" standalone="no"?>
<!DOCTYPE svg PUBLIC "-//W3C//DTD SVG 20010904//EN"
 "http://www.w3.org/TR/2001/REC-SVG-20010904/DTD/svg10.dtd">
<svg version="1.0" xmlns="http://www.w3.org/2000/svg"
 width="200.000000pt" height="200.000000pt" viewBox="0 0 200.000000 200.000000"
 preserveAspectRatio="xMidYMid meet">
<metadata>
Created by potrace 1.11, written by Peter Selinger 2001-2013
</metadata>
<g transform="translate(0.000000,200.000000) scale(0.100000,-0.100000)"
fill="#000000" stroke="none">
<path d="M1731 1865 c-40 -19 -115 -64 -166 -99 -78 -53 -96 -62 -106 -50 -17
21 -83 38 -115 30 -15 -4 -67 -45 -114 -92 -48 -46 -91 -84 -97 -84 -5 0 -23
7 -40 15 -85 43 -196 36 -303 -17 -55 -27 -108 -75 -348 -312 -323 -320 -337
-339 -336 -461 0 -125 20 -155 282 -416 263 -261 281 -273 407 -274 131 0 141
7 446 313 265 265 317 328 355 427 27 72 25 176 -5 238 l-24 49 81 81 c44 45
85 92 91 104 17 33 13 81 -9 122 l-21 36 56 85 c63 94 119 208 130 258 5 23 2
40 -9 57 -23 35 -66 32 -155 -10z m69 -117 c-36 -72 -132 -228 -140 -228 -3 0
-36 31 -74 69 l-69 69 94 63 c52 34 121 75 154 90 74 36 80 26 35 -63z m-252
-211 c100 -102 142 -150 142 -167 0 -15 -27 -50 -82 -107 l-83 -83 -170 170
-170 170 80 80 c113 114 106 115 283 -63z m-488 -8 c61 -27 442 -405 472 -468
34 -71 29 -146 -18 -239 -34 -70 -61 -101 -302 -344 -186 -187 -279 -274 -311
-290 -60 -29 -151 -29 -206 0 -57 29 -490 467 -510 514 -19 48 -19 138 0 186
19 45 515 546 590 596 100 67 202 83 285 45z"/>
<path d="M937 1397 c-57 -96 -65 -114 -52 -126 12 -12 27 -6 106 42 51 31 95
55 96 53 2 -2 -21 -44 -51 -94 -50 -83 -53 -91 -38 -105 15 -14 27 -9 122 49
58 36 106 68 108 73 9 25 -23 15 -104 -34 -49 -29 -91 -52 -92 -50 -2 2 19 43
48 90 46 78 56 115 33 115 -4 0 -48 -24 -98 -54 -49 -30 -91 -53 -93 -51 -2 1
22 43 52 93 42 69 52 93 42 101 -9 7 -29 -18 -79 -102z"/>
<path d="M628 1073 c-164 -163 -182 -192 -154 -255 17 -40 321 -343 354 -353
60 -18 91 1 239 148 217 214 217 210 -21 445 l-163 162 -53 0 -53 0 -149 -147z
m390 -67 c126 -126 152 -157 152 -181 0 -24 -24 -53 -138 -167 -114 -114 -143
-138 -167 -138 -24 0 -55 26 -187 158 -116 115 -158 164 -158 182 0 17 37 61
133 158 136 138 158 154 192 145 11 -2 89 -73 173 -157z"/>
<path d="M1164 1185 c-32 -17 -64 -62 -64 -92 0 -51 76 -121 102 -95 9 9 8 12
-3 12 -24 0 -69 53 -69 82 0 45 20 43 71 -8 47 -47 49 -47 69 -29 28 26 27 85
-2 113 -32 29 -68 35 -104 17z m86 -35 c22 -22 25 -37 11 -59 -6 -9 -13 -10
-27 -3 -31 16 -67 60 -59 71 10 18 53 13 75 -9z"/>
<path d="M1321 1026 c-56 -57 -89 -96 -82 -100 6 -4 16 -4 21 -1 6 3 10 -3 10
-14 0 -33 35 -61 76 -61 51 0 104 53 104 104 0 39 -31 76 -64 76 -17 0 -16 5
14 35 22 23 31 38 24 45 -6 6 -42 -23 -103 -84z m93 -37 c20 -30 1 -77 -42
-102 -30 -18 -34 -18 -57 -3 -34 22 -32 60 4 97 35 35 74 38 95 8z"/>
<path d="M302 820 c-38 -23 -72 -75 -72 -110 0 -51 65 -120 113 -120 7 0 27
15 45 33 l32 33 -30 29 c-33 32 -54 27 -25 -5 18 -20 18 -21 -7 -46 l-25 -26
-37 32 c-49 44 -50 86 -1 135 49 48 91 48 134 0 17 -20 31 -43 31 -52 0 -13 3
-14 12 -5 18 18 -14 78 -54 102 -42 25 -74 25 -116 0z"/>
<path d="M461 613 c-44 -47 -77 -91 -74 -96 3 -5 45 30 94 79 79 78 96 104 69
104 -5 0 -45 -39 -89 -87z"/>
<path d="M512 536 c-29 -30 -52 -62 -52 -71 0 -20 44 -65 64 -65 10 0 13 -6
10 -15 -13 -33 24 -12 80 44 39 39 54 61 46 66 -7 4 -29 -9 -54 -34 -43 -42
-80 -53 -104 -29 -21 21 -13 41 35 90 32 33 44 51 37 58 -7 7 -27 -6 -62 -44z"/>
<path d="M651 393 c-40 -37 -46 -70 -21 -111 21 -34 65 -61 78 -47 4 4 1 10
-7 13 -28 10 -61 51 -61 76 0 43 20 40 70 -9 l48 -47 16 23 c59 85 -47 172
-123 102z m97 -9 c23 -16 30 -58 11 -70 -6 -3 -28 10 -48 30 -30 30 -33 38
-21 46 21 13 32 12 58 -6z"/>
</g>
</svg>
